<svg width="36" height="36" viewBox="0 0 36 36" fill="none" xmlns="http://www.w3.org/2000/svg">
<path d="M17.8789 10.9971C19.207 10.0982 20.9999 11.0497 21 12.6533V23.3467C20.9999 24.9503 19.207 25.9018 17.8789 25.0029L14.9434 23.0156C14.4469 22.6796 13.8612 22.5 13.2617 22.5H12C10.8954 22.5 10 21.6046 10 20.5V15.5C10 14.3954 10.8954 13.5 12 13.5H13.2617C13.8612 13.5 14.4469 13.3204 14.9434 12.9844L17.8789 10.9971Z" stroke="white" stroke-width="2"/>
<path d="M25 15C25.8841 15.9019 26.4293 17.1373 26.4293 18.5C26.4293 19.8627 25.8841 21.0981 25 22" stroke="white" stroke-width="2"/>
</svg>
